<svg xmlns="http://www.w3.org/2000/svg" xmlns:xlink="http://www.w3.org/1999/xlink" width="1280" height="640" viewBox="0 0 30240 15120"><defs id="defs6"><polygon id="Star7" points="0 -9 1.736 -3.604 7.036 -5.611 3.9 -.89 8.774 2.003 3.127 2.494 3.905 8.109 0 4 -3.905 8.109 -3.127 2.494 -8.774 2.003 -3.9 -.89 -7.036 -5.611 -1.736 -3.604 0 -9"/><polygon id="Star5" points="0 -9 2.351 -3.236 8.56 -2.781 3.804 1.236 5.29 7.281 0 4 -5.29 7.281 -3.804 1.236 -8.56 -2.781 -2.351 -3.236 0 -9"/></defs><path fill="#00008b" d="M 0,0 L 30240,0 L 30240,15120 L 0,15120 L 0,0 z"/><use id="Commonwealth_Star" fill="#fff" transform="matrix(252,0,0,252,7560,11340)" xlink:href="#Star7"/><use id="Star_Alpha_Crucis" fill="#fff" transform="matrix(120,0,0,120,22680,12600)" xlink:href="#Star7"/><use id="Star_Beta_Crucis" fill="#fff" transform="matrix(120,0,0,120,18900,6615)" xlink:href="#Star7"/><use id="Star_Gamma_Crucis" fill="#fff" transform="matrix(120,0,0,120,22680,2520)" xlink:href="#Star7"/><use id="Star_Delta_Crucis" fill="#fff" transform="matrix(120,0,0,120,26040,5607)" xlink:href="#Star7"/><use id="Star_Epsilon_Crucis" fill="#fff" transform="matrix(70,0,0,70,24192,8190)" xlink:href="#Star5"/><path id="White_Cross" fill="#fff" d="M 6300,0 L 8820,0 L 8820,2520 L 15120,2520 L 15120,5040 L 8820,5040 L 8820,7560 L 6300,7560 L 6300,5040 L 0,5040 L 0,2520 L 6300,2520 L 6300,0 z"/><path id="White_Diagonal" fill="#fff" d="M 0,0 L 1690.4674,0 L 15120,6714.7663 L 15120,7560 L 13429.533,7560 L 0,845.2337 L 0,0 z"/><use id="White_Diagonal_Flipped" fill="#fff" transform="matrix(-1,0,0,1,15120,0)" xlink:href="#White_Diagonal"/><path id="Red_Cross" fill="red" d="M 6804,0 L 8316,0 L 8316,3024 L 15120,3024 L 15120,4536 L 8316,4536 L 8316,7560 L 6804,7560 L 6804,4536 L 0,4536 L 0,3024 L 6804,3024 L 6804,0 z"/><path id="Red_Diagonals" fill="red" d="M 0,0 L 5040,2520 L 3913.0217,2520 L 0,563.48913 L 0,0 z M 15120,0 L 13993.022,0 L 8953.0217,2520 L 10080,2520 L 15120,0 z"/><use id="Red_Diagonals_Rotated" fill="red" transform="matrix(-1,0,0,-1,15120,7560)" xlink:href="#Red_Diagonals"/></svg>
