<svg xmlns="http://www.w3.org/2000/svg" xmlns:xlink="http://www.w3.org/1999/xlink" width="720" height="504" version="1.0" viewBox="-2100 -1470 4200 2940"><defs><path id="D" fill-rule="evenodd" d="M -31.5,0 h 33 a 30 30 0 0 0 30,-30 v -10 a 30 30 0 0 0 -30,-30 H -31.5 z M -18.5,-13 h 19 a 19 19 0 0 0 19,-19 v -6 a 19 19 0 0 0 -19,-19 H -18.5 z"/><path id="E" d="M 0,0 h 63 v -13 H 12 v -18 h 40 v -12 h -40 v -14 H 60 v -13 H 0 z" transform="translate(-31.5)"/><path id="e" d="M -26.25,0 h 52.5 v -12 h -40.5 v -16 h 33 v -12 h -33 v -11 H 25 v -12 H -26.25 z"/><g id="G"><clipPath id="gcut"><path d="M -31.5,0 v -70 h 63 v 70 z M 0,-47 v 12 h 31.5 v -12 z"/></clipPath><use clip-path="url(#gcut)" xlink:href="#O"/><rect width="26.5" height="10" x="5" y="-35"/><rect width="10" height="35" x="21.5" y="-35"/></g><path id="M" d="M -31.5,0 h 12 v -48 l 14,48 h 11 l 14,-48 V 0 h 12 V -70 h -17.5 l -14,48 l -14,-48 H -31.5 z"/><path id="O" fill-rule="evenodd" d="M 0,0 a 31.5 35 0 0 0 0,-70 a 31.5 35 0 0 0 0,70 M 0,-13 a 18.5 22 0 0 0 0,-44 a 18.5 22 0 0 0 0,44"/><path id="P" fill-rule="evenodd" d="M -31.5,0 h 13 v -26 h 28 a 22 22 0 0 0 0,-44 h -40 z M -18.5,-39 h 27 a 9 9 0 0 0 0,-18 h -27 z"/><g id="R"><use xlink:href="#P"/><path d="M 28,0 c 0,-10 0,-32 -15,-32 h -19 c 22,0 22,22 22,32"/></g><path id="S" d="M -15.75,-22 C -15.75,-15 -9,-11.5 1,-11.5 C 11,-11.5 15.74,-14.75 15.75,-19.25 C 15.75,-33.5 -31,-24.5 -30.75,-49.5 C -30.5,-71 -6,-70 3,-70 C 12,-70 29,-66 28.75,-48.75 L 13.5,-48.75 C 13.5,-56.25 6.5,-59 -1.5,-59 C -9.25,-59 -14.75,-57.75 -14.75,-50.5 C -15,-38.75 31.5,-46.5 31.5,-21.75 C 31.5,-3.5 13.5,0 0,0 C -11.5,0 -31.55,-4.5 -31.5,-22 z"/><g id="star" fill="#fff"><g id="c"><path id="t" d="M 0,-1 v 1 h .5" transform="rotate(18 0,-1)"/><use transform="scale(-1,1)" xlink:href="#t"/></g><use transform="rotate(72)" xlink:href="#c"/><use transform="rotate(-72)" xlink:href="#c"/><use transform="rotate(144)" xlink:href="#c"/><use transform="rotate(-144)" xlink:href="#c"/></g><use id="star1" transform="scale(31.5)" xlink:href="#star"/><use id="star2" transform="scale(26.25)" xlink:href="#star"/><use id="star3" transform="scale(21)" xlink:href="#star"/><use id="star4" transform="scale(15)" xlink:href="#star"/><use id="star5" transform="scale(10.5)" xlink:href="#star"/></defs><rect width="100%" height="100%" x="-50%" y="-50%" fill="#009b3a"/><path fill="#fedf00" d="M -1743,0 0,1113 1743,0 0,-1113 z"/><circle r="735" fill="#002776"/><clipPath id="band"><circle r="735"/></clipPath><path fill="#fff" d="M -2205,1470 a 1785 1785 0 0 1 3570,0 h -105 a 1680 1680 0 1 0 -3360,0 z" clip-path="url(#band)"/><g fill="#009b3a" transform="translate(-420,1470)"><use y="-1697.5" transform="rotate(-7)" xlink:href="#O"/><use y="-1697.5" transform="rotate(-4)" xlink:href="#R"/><use y="-1697.5" transform="rotate(-1)" xlink:href="#D"/><use y="-1697.5" transform="rotate(2)" xlink:href="#E"/><use y="-1697.5" transform="rotate(5)" xlink:href="#M"/><use y="-1697.5" transform="rotate(9.75)" xlink:href="#e"/><use y="-1697.5" transform="rotate(14.5)" xlink:href="#P"/><use y="-1697.5" transform="rotate(17.5)" xlink:href="#R"/><use y="-1697.5" transform="rotate(20.5)" xlink:href="#O"/><use y="-1697.5" transform="rotate(23.5)" xlink:href="#G"/><use y="-1697.5" transform="rotate(26.5)" xlink:href="#R"/><use y="-1697.5" transform="rotate(29.5)" xlink:href="#E"/><use y="-1697.5" transform="rotate(32.5)" xlink:href="#S"/><use y="-1697.5" transform="rotate(35.5)" xlink:href="#S"/><use y="-1697.5" transform="rotate(38.5)" xlink:href="#O"/></g><use id="αCMi" x="-600" y="-132" xlink:href="#star1"/><use id="αCMa" x="-535" y="177" xlink:href="#star1"/><use id="βCMa" x="-625" y="243" xlink:href="#star2"/><use id="γCMa" x="-463" y="132" xlink:href="#star4"/><use id="δCMa" x="-382" y="250" xlink:href="#star2"/><use id="εCMa" x="-404" y="323" xlink:href="#star3"/><use id="αVir" x="228" y="-228" xlink:href="#star1"/><use id="αSco" x="515" y="258" xlink:href="#star1"/><use id="βSco" x="617" y="265" xlink:href="#star3"/><use id="εSco" x="545" y="323" xlink:href="#star2"/><use id="θSco" x="368" y="477" xlink:href="#star2"/><use id="ιSco" x="367" y="551" xlink:href="#star3"/><use id="κSco" x="441" y="419" xlink:href="#star3"/><use id="λSco" x="500" y="382" xlink:href="#star2"/><use id="μSco" x="365" y="405" xlink:href="#star3"/><use id="αHya" x="-280" y="30" xlink:href="#star2"/><use id="γHya" x="200" y="-37" xlink:href="#star3"/><use id="αCru" y="330" xlink:href="#star1"/><use id="βCru" x="85" y="184" xlink:href="#star2"/><use id="γCru" y="118" xlink:href="#star2"/><use id="δCru" x="-74" y="184" xlink:href="#star3"/><use id="εCru" x="-37" y="235" xlink:href="#star4"/><use id="αTrA" x="220" y="495" xlink:href="#star2"/><use id="βTrA" x="283" y="430" xlink:href="#star3"/><use id="γTrA" x="162" y="412" xlink:href="#star3"/><use id="αCar" x="-295" y="390" xlink:href="#star1"/><use id="σOct" y="575" xlink:href="#star5"/></svg>