<svg xmlns="http://www.w3.org/2000/svg" xmlns:svg="http://www.w3.org/2000/svg" xmlns:xlink="http://www.w3.org/1999/xlink" id="svg548" width="600" height="300" version="1.0"><g id="g42903"><rect id="rect576" width="600" height="300" x="0" y="0" fill="#fff" fill-rule="evenodd" stroke="none" stroke-width="1.322" font-size="12"/><path id="path570" fill="#002b7f" fill-opacity="1" fill-rule="evenodd" stroke="none" stroke-opacity="1" stroke-width="1pt" d="M 600.00013,260.88144 C 593.27699,264.92597 587.50091,274.37874 569.64047,274.37874 C 533.92927,274.37874 524.99875,254.47737 498.21263,254.47737 C 480.35704,254.47737 471.42833,274.37874 453.57152,274.37874 C 417.8573,274.37874 408.9286,254.47737 382.14308,254.47737 C 364.28567,254.47737 355.35696,274.37874 337.50016,274.37874 C 301.78594,274.37874 292.85723,254.47737 266.07172,254.47737 C 248.2143,254.47737 239.2856,274.37874 221.42879,274.37874 C 185.71457,274.37874 176.78586,254.47737 150.00035,254.47737 C 132.14233,254.47737 123.21423,274.37874 105.35743,274.37874 C 69.643205,274.37874 60.713894,254.47737 33.928562,254.47737 C 16.071452,254.47737 10.714289,268.65877 2.270937e-05,268.65877 L 2.270937e-05,294.28011 C 10.714289,294.28011 16.071391,280.0987 33.928562,280.0987 C 60.713894,280.0987 69.643205,300.00007 105.35743,300.00007 C 123.21423,300.00007 132.14233,280.0987 150.00035,280.0987 C 176.78526,280.0987 185.71457,300.00007 221.42879,300.00007 C 239.2856,300.00007 248.2143,280.0987 266.07172,280.0987 C 292.85723,280.0987 301.78594,300.00007 337.50016,300.00007 C 355.35696,300.00007 364.28567,280.0987 382.14308,280.0987 C 408.9286,280.0987 417.8573,300.00007 453.57152,300.00007 C 471.42833,300.00007 480.35704,280.0987 498.21263,280.0987 C 524.99875,280.0987 533.92927,300.00007 569.64047,300.00007 C 587.50091,300.00007 593.27699,294.36043 600.00013,290.3159 L 600.00013,260.88144 z" font-size="12"/><use id="use3398" width="600" height="300" x="0" y="0" transform="translate(0,49.75348)" xlink:href="#use3396"/><use id="use3396" width="600" height="300" x="0" y="0" transform="translate(0,-99.50701)" xlink:href="#path570"/><path id="path573" fill="#002b7f" fill-opacity="1" fill-rule="evenodd" stroke="none" stroke-opacity="1" stroke-width="1pt" d="M 266.07172,130.83824 C 292.85723,130.83824 301.78594,150.73961 337.50016,150.73961 C 355.35696,150.73961 364.28567,130.83824 382.14308,130.83824 C 408.9286,130.83824 417.8573,150.73961 453.57152,150.73961 C 471.42833,150.73961 480.35704,130.83824 498.21263,130.83824 C 524.99875,130.83824 533.92927,150.73961 569.64047,150.73961 C 587.50091,150.73961 593.27699,145.09997 600.00013,141.05544 L 600.00013,111.62098 C 593.27699,115.66551 587.50091,125.11828 569.64047,125.11828 C 533.92927,125.11828 524.99875,105.21691 498.21263,105.21691 C 480.35704,105.21691 471.42833,125.11828 453.57152,125.11828 C 417.8573,125.11828 408.9286,105.21691 382.14308,105.21691 C 364.28567,105.21691 355.35696,125.11828 337.50016,125.11828 C 301.78594,125.11828 292.85723,105.21691 266.07172,105.21691" font-size="12"/><use id="use2595" width="600" height="300" x="0" y="0" transform="translate(0,-49.75352)" xlink:href="#path573"/><use id="use2597" width="600" height="300" x="0" y="0" transform="translate(0,-99.507016)" xlink:href="#path573"/><g id="g6773" transform="matrix(0.5,0,0,0.5,0,154.7222)"><rect id="rect3179" width="600" height="300" x="0" y="-309.444" fill="#fff" fill-opacity="1" fill-rule="evenodd" stroke-opacity="1"/><path id="path4054" fill="#002b7f" fill-opacity="1" fill-rule="evenodd" stroke-opacity="1" d="M -238.28967,473.03977 L -238.50396,378.74081 L -156.73152,425.70471 L -238.28967,473.03977 z" transform="matrix(2.849371,0,0,2.449656,679.5863,-1202.729)"/><use id="use6675" width="600" height="600" x="0" y="0" transform="matrix(-1,0,0,1,600,-2.006206e-6)" xlink:href="#path4054"/><use id="use6677" width="600" height="600" x="0" y="0" transform="matrix(0,-0.502146,2.017316,0,621.6497,-9.4444)" xlink:href="#path4054"/><use id="use6679" width="600" height="600" x="0" y="0" transform="matrix(1,0,0,-1,-4.715239e-8,-318.8888)" xlink:href="#use6677"/></g><path id="path3141" fill="#ce1126" fill-opacity="1" fill-rule="evenodd" stroke="none" stroke-linecap="butt" stroke-linejoin="miter" stroke-opacity="1" stroke-width="1pt" d="M 177.64,50 L 200,50 L 300,0 L 277.64,0 L 177.64,50 z"/><path id="path3143" fill="#ce1126" fill-opacity="1" fill-rule="evenodd" stroke="none" stroke-linecap="butt" stroke-linejoin="miter" stroke-opacity="1" stroke-width="1pt" d="M 0,0 L 0,11.18 L 77.64,50 L 100,50 L 0,0 z"/><path id="path3145" fill="#ce1126" fill-opacity="1" fill-rule="evenodd" stroke="none" stroke-linecap="butt" stroke-linejoin="miter" stroke-opacity="1" stroke-width="1pt" d="M 300,150.00001 L 300,138.82001 L 222.36,100.00001 L 200,100.00001 L 300,150.00001 z"/><path id="path3147" fill="#ce1126" fill-opacity="1" fill-rule="evenodd" stroke="none" stroke-linecap="butt" stroke-linejoin="miter" stroke-opacity="1" stroke-width="1pt" d="M 0,150 L 22.36,150 L 122.36,100 L 100,100 L 0,150 z"/><g id="g6767" transform="matrix(0.5,0,0,0.5,0,5e-6)"><use id="use6763" width="600" height="300" x="0" y="0" transform="matrix(1,0,0,0.333333,0,203.1481)" xlink:href="#rect3179"/><use id="use6765" width="600" height="300" x="0" y="0" transform="matrix(0,0.5,-1,0,450,0)" xlink:href="#use6763"/></g><rect id="use3168" width="300" height="30" x="0" y="60" fill="#ce1124" fill-opacity="1" fill-rule="evenodd" stroke-opacity="1" rx="0" ry="0"/><use id="use6771" width="600" height="300" x="0" y="0" transform="matrix(0,0.5,-1,0,225,5e-6)" xlink:href="#use3168"/><g id="g2838"><g id="Palm" transform="matrix(0.604762,0,0,0.604762,0,-1.160721e-4)"><path id="path861" fill="#a24300" fill-opacity="1" fill-rule="evenodd" stroke="#fff" stroke-dasharray="none" stroke-linecap="butt" stroke-linejoin="miter" stroke-opacity="1" stroke-width="6.935" d="M 814.961,-301.181 L 797.244,407.48 C 797.244,444.778 877.341,444.778 885.827,407.48 L 868.11,-301.181 L 814.961,-301.181 z" transform="matrix(0.200004,0,0,0.475,575.1662,274.5648)"/><g id="g862" transform="matrix(0.725195,0,0,0.6231,202.0636,41.43416)"><g id="g852" transform="matrix(-0.314512,0.10485,-0.138292,-0.303235,1046.472,373.319)"><path id="path853" fill="#006d00" fill-rule="evenodd" stroke="#fff" stroke-dasharray="none" stroke-width="8.25" d="M 496.063,549.213 L 513.78,620.079 L 549.213,566.929 L 531.496,655.512 L 566.929,620.079 L 531.496,708.661 L 566.929,673.228 L 531.496,761.811 L 566.929,726.378 L 531.496,832.677 L 566.929,797.244 L 531.496,903.543 L 566.929,868.11 L 531.496,974.409 L 513.78,1027.56 L 496.063,1045.28 L 478.346,1027.56 L 460.63,974.409 L 425.197,868.11 L 460.63,903.543 L 425.197,797.244 L 460.63,832.677 L 425.197,726.378 L 460.63,761.811 L 425.197,673.228 L 460.63,708.661 L 425.197,620.079 L 460.63,655.512 L 442.913,566.929 L 478.346,620.079 L 496.063,549.213 z" font-size="12" transform="translate(177.1655,-224.0517)"/><path id="path854" fill="none" fill-rule="evenodd" stroke="#000" stroke-width="1pt" d="M 496.063,549.213 L 496.063,1045.28" font-size="12" transform="translate(177.1655,-224.0517)"/><path id="path855" fill="none" fill-rule="evenodd" stroke="#000" stroke-width="1pt" d="M 425.197,868.11 L 496.063,974.409 L 566.929,868.11" font-size="12" transform="translate(177.1655,-224.0517)"/><path id="path856" fill="none" fill-rule="evenodd" stroke="#000" stroke-width="1pt" d="M 425.197,797.244 L 496.063,903.543 L 566.929,797.244" font-size="12" transform="translate(177.1655,-224.0517)"/><path id="path857" fill="none" fill-rule="evenodd" stroke="#000" stroke-width="1pt" d="M 425.197,726.378 L 496.063,832.677 L 566.929,726.378" font-size="12" transform="translate(177.1655,-224.0517)"/><path id="path858" fill="none" fill-rule="evenodd" stroke="#000" stroke-width="1pt" d="M 425.197,673.228 L 496.063,761.811 L 566.929,673.228" font-size="12" transform="translate(177.1655,-224.0517)"/><path id="path859" fill="none" fill-rule="evenodd" stroke="#000" stroke-width="1pt" d="M 425.197,620.079 L 496.063,708.661 L 566.929,620.079" font-size="12" transform="translate(177.1655,-224.0517)"/><path id="path860" fill="none" fill-rule="evenodd" stroke="#000" stroke-width="1pt" d="M 442.913,566.929 L 496.063,673.228 L 549.213,566.929" font-size="12" transform="translate(177.1655,-224.0517)"/></g><g id="g738" transform="matrix(0.236516,-0.281856,0.294964,0.227618,354.5673,204.654)"><path id="path739" fill="#006d00" fill-rule="evenodd" stroke="#fff" stroke-dasharray="none" stroke-width="8.25" d="M 496.063,549.213 L 513.78,620.079 L 549.213,566.929 L 531.496,655.512 L 566.929,620.079 L 531.496,708.661 L 566.929,673.228 L 531.496,761.811 L 566.929,726.378 L 531.496,832.677 L 566.929,797.244 L 531.496,903.543 L 566.929,868.11 L 531.496,974.409 L 513.78,1027.56 L 496.063,1045.28 L 478.346,1027.56 L 460.63,974.409 L 425.197,868.11 L 460.63,903.543 L 425.197,797.244 L 460.63,832.677 L 425.197,726.378 L 460.63,761.811 L 425.197,673.228 L 460.63,708.661 L 425.197,620.079 L 460.63,655.512 L 442.913,566.929 L 478.346,620.079 L 496.063,549.213 z" font-size="12" transform="translate(177.1655,-224.0517)"/><path id="path740" fill="none" fill-rule="evenodd" stroke="#000" stroke-width="1pt" d="M 496.063,549.213 L 496.063,1045.28" font-size="12" transform="translate(177.1655,-224.0517)"/><path id="path741" fill="none" fill-rule="evenodd" stroke="#000" stroke-width="1pt" d="M 425.197,868.11 L 496.063,974.409 L 566.929,868.11" font-size="12" transform="translate(177.1655,-224.0517)"/><path id="path742" fill="none" fill-rule="evenodd" stroke="#000" stroke-width="1pt" d="M 425.197,797.244 L 496.063,903.543 L 566.929,797.244" font-size="12" transform="translate(177.1655,-224.0517)"/><path id="path743" fill="none" fill-rule="evenodd" stroke="#000" stroke-width="1pt" d="M 425.197,726.378 L 496.063,832.677 L 566.929,726.378" font-size="12" transform="translate(177.1655,-224.0517)"/><path id="path744" fill="none" fill-rule="evenodd" stroke="#000" stroke-width="1pt" d="M 425.197,673.228 L 496.063,761.811 L 566.929,673.228" font-size="12" transform="translate(177.1655,-224.0517)"/><path id="path745" fill="none" fill-rule="evenodd" stroke="#000" stroke-width="1pt" d="M 425.197,620.079 L 496.063,708.661 L 566.929,620.079" font-size="12" transform="translate(177.1655,-224.0517)"/><path id="path746" fill="none" fill-rule="evenodd" stroke="#000" stroke-width="1pt" d="M 442.913,566.929 L 496.063,673.228 L 549.213,566.929" font-size="12" transform="translate(177.1655,-224.0517)"/></g><g id="g747" transform="matrix(0.15164,0.335243,-0.332899,0.167308,907.5388,-153.4696)"><path id="path748" fill="#006d00" fill-rule="evenodd" stroke="#fff" stroke-dasharray="none" stroke-width="8.25" d="M 496.063,549.213 L 513.78,620.079 L 549.213,566.929 L 531.496,655.512 L 566.929,620.079 L 531.496,708.661 L 566.929,673.228 L 531.496,761.811 L 566.929,726.378 L 531.496,832.677 L 566.929,797.244 L 531.496,903.543 L 566.929,868.11 L 531.496,974.409 L 513.78,1027.56 L 496.063,1045.28 L 478.346,1027.56 L 460.63,974.409 L 425.197,868.11 L 460.63,903.543 L 425.197,797.244 L 460.63,832.677 L 425.197,726.378 L 460.63,761.811 L 425.197,673.228 L 460.63,708.661 L 425.197,620.079 L 460.63,655.512 L 442.913,566.929 L 478.346,620.079 L 496.063,549.213 z" font-size="12" transform="translate(177.1655,-224.0517)"/><path id="path749" fill="none" fill-rule="evenodd" stroke="#000" stroke-width="1pt" d="M 496.063,549.213 L 496.063,1045.28" font-size="12" transform="translate(177.1655,-224.0517)"/><path id="path750" fill="none" fill-rule="evenodd" stroke="#000" stroke-width="1pt" d="M 425.197,868.11 L 496.063,974.409 L 566.929,868.11" font-size="12" transform="translate(177.1655,-224.0517)"/><path id="path751" fill="none" fill-rule="evenodd" stroke="#000" stroke-width="1pt" d="M 425.197,797.244 L 496.063,903.543 L 566.929,797.244" font-size="12" transform="translate(177.1655,-224.0517)"/><path id="path752" fill="none" fill-rule="evenodd" stroke="#000" stroke-width="1pt" d="M 425.197,726.378 L 496.063,832.677 L 566.929,726.378" font-size="12" transform="translate(177.1655,-224.0517)"/><path id="path753" fill="none" fill-rule="evenodd" stroke="#000" stroke-width="1pt" d="M 425.197,673.228 L 496.063,761.811 L 566.929,673.228" font-size="12" transform="translate(177.1655,-224.0517)"/><path id="path754" fill="none" fill-rule="evenodd" stroke="#000" stroke-width="1pt" d="M 425.197,620.079 L 496.063,708.661 L 566.929,620.079" font-size="12" transform="translate(177.1655,-224.0517)"/><path id="path755" fill="none" fill-rule="evenodd" stroke="#000" stroke-width="1pt" d="M 442.913,566.929 L 496.063,673.228 L 549.213,566.929" font-size="12" transform="translate(177.1655,-224.0517)"/></g><g id="g756" transform="matrix(-0.209517,0.302465,-0.314697,-0.199448,1141.363,167.5798)"><path id="path757" fill="#006d00" fill-rule="evenodd" stroke="#fff" stroke-dasharray="none" stroke-width="8.25" d="M 496.063,549.213 L 513.78,620.079 L 549.213,566.929 L 531.496,655.512 L 566.929,620.079 L 531.496,708.661 L 566.929,673.228 L 531.496,761.811 L 566.929,726.378 L 531.496,832.677 L 566.929,797.244 L 531.496,903.543 L 566.929,868.11 L 531.496,974.409 L 513.78,1027.56 L 496.063,1045.28 L 478.346,1027.56 L 460.63,974.409 L 425.197,868.11 L 460.63,903.543 L 425.197,797.244 L 460.63,832.677 L 425.197,726.378 L 460.63,761.811 L 425.197,673.228 L 460.63,708.661 L 425.197,620.079 L 460.63,655.512 L 442.913,566.929 L 478.346,620.079 L 496.063,549.213 z" font-size="12" transform="translate(177.1655,-224.0517)"/><path id="path758" fill="none" fill-rule="evenodd" stroke="#000" stroke-width="1pt" d="M 496.063,549.213 L 496.063,1045.28" font-size="12" transform="translate(177.1655,-224.0517)"/><path id="path759" fill="none" fill-rule="evenodd" stroke="#000" stroke-width="1pt" d="M 425.197,868.11 L 496.063,974.409 L 566.929,868.11" font-size="12" transform="translate(177.1655,-224.0517)"/><path id="path760" fill="none" fill-rule="evenodd" stroke="#000" stroke-width="1pt" d="M 425.197,797.244 L 496.063,903.543 L 566.929,797.244" font-size="12" transform="translate(177.1655,-224.0517)"/><path id="path761" fill="none" fill-rule="evenodd" stroke="#000" stroke-width="1pt" d="M 425.197,726.378 L 496.063,832.677 L 566.929,726.378" font-size="12" transform="translate(177.1655,-224.0517)"/><path id="path762" fill="none" fill-rule="evenodd" stroke="#000" stroke-width="1pt" d="M 425.197,673.228 L 496.063,761.811 L 566.929,673.228" font-size="12" transform="translate(177.1655,-224.0517)"/><path id="path763" fill="none" fill-rule="evenodd" stroke="#000" stroke-width="1pt" d="M 425.197,620.079 L 496.063,708.661 L 566.929,620.079" font-size="12" transform="translate(177.1655,-224.0517)"/><path id="path764" fill="none" fill-rule="evenodd" stroke="#000" stroke-width="1pt" d="M 442.913,566.929 L 496.063,673.228 L 549.213,566.929" font-size="12" transform="translate(177.1655,-224.0517)"/></g><g id="g765" transform="matrix(-0.207724,-0.258384,0.236176,-0.235153,689.9856,567.2772)"><path id="path766" fill="#006d00" fill-rule="evenodd" stroke="#fff" stroke-dasharray="none" stroke-width="8.25" d="M 496.063,549.213 L 513.78,620.079 L 549.213,566.929 L 531.496,655.512 L 566.929,620.079 L 531.496,708.661 L 566.929,673.228 L 531.496,761.811 L 566.929,726.378 L 531.496,832.677 L 566.929,797.244 L 531.496,903.543 L 566.929,868.11 L 531.496,974.409 L 513.78,1027.56 L 496.063,1045.28 L 478.346,1027.56 L 460.63,974.409 L 425.197,868.11 L 460.63,903.543 L 425.197,797.244 L 460.63,832.677 L 425.197,726.378 L 460.63,761.811 L 425.197,673.228 L 460.63,708.661 L 425.197,620.079 L 460.63,655.512 L 442.913,566.929 L 478.346,620.079 L 496.063,549.213 z" font-size="12" transform="translate(177.1655,-224.0517)"/><path id="path767" fill="none" fill-rule="evenodd" stroke="#000" stroke-width="1pt" d="M 496.063,549.213 L 496.063,1045.28" font-size="12" transform="translate(177.1655,-224.0517)"/><path id="path768" fill="none" fill-rule="evenodd" stroke="#000" stroke-width="1pt" d="M 425.197,868.11 L 496.063,974.409 L 566.929,868.11" font-size="12" transform="translate(177.1655,-224.0517)"/><path id="path769" fill="none" fill-rule="evenodd" stroke="#000" stroke-width="1pt" d="M 425.197,797.244 L 496.063,903.543 L 566.929,797.244" font-size="12" transform="translate(177.1655,-224.0517)"/><path id="path770" fill="none" fill-rule="evenodd" stroke="#000" stroke-width="1pt" d="M 425.197,726.378 L 496.063,832.677 L 566.929,726.378" font-size="12" transform="translate(177.1655,-224.0517)"/><path id="path771" fill="none" fill-rule="evenodd" stroke="#000" stroke-width="1pt" d="M 425.197,673.228 L 496.063,761.811 L 566.929,673.228" font-size="12" transform="translate(177.1655,-224.0517)"/><path id="path772" fill="none" fill-rule="evenodd" stroke="#000" stroke-width="1pt" d="M 425.197,620.079 L 496.063,708.661 L 566.929,620.079" font-size="12" transform="translate(177.1655,-224.0517)"/><path id="path773" fill="none" fill-rule="evenodd" stroke="#000" stroke-width="1pt" d="M 442.913,566.929 L 496.063,673.228 L 549.213,566.929" font-size="12" transform="translate(177.1655,-224.0517)"/></g><g id="g791" transform="matrix(-0.362184,-9.947167e-2,-0.209809,0.317733,1222.415,-24.22945)"><path id="path775" fill="#006d00" fill-rule="evenodd" stroke="#fff" stroke-width="8.25" d="M 460.63,549.213 L 489.273,620.079 L 531.496,566.929 L 521.312,655.512 L 549.212,620.079 L 531.496,708.661 L 556.745,673.228 L 531.496,761.811 L 566.929,726.378 L 531.496,832.677 L 566.929,797.244 L 531.496,903.543 L 566.929,868.11 L 531.496,974.409 L 513.78,1027.56 L 496.063,1045.28 L 478.346,1027.56 L 460.63,974.409 L 425.197,868.11 L 460.63,903.543 L 425.197,797.244 L 460.63,832.677 L 425.197,726.378 L 460.63,761.811 L 415.013,673.228 L 460.63,708.661 L 407.48,620.079 L 450.446,655.512 L 425.196,566.929 L 460.629,620.079 L 460.63,549.213 z" font-size="12" transform="translate(283.4647,-124.0162)"/><path id="path776" fill="none" fill-rule="evenodd" stroke="#000" stroke-width="1pt" d="M 467.208,584.646 L 496.063,708.662 L 496.063,1045.28" font-size="12" transform="translate(283.4647,-124.0162)"/><path id="path777" fill="none" fill-rule="evenodd" stroke="#000" stroke-width="1pt" d="M 436.23,885.827 L 496.063,974.409 L 556.745,885.827" font-size="12" transform="translate(283.4647,-124.0162)"/><path id="path778" fill="none" fill-rule="evenodd" stroke="#000" stroke-width="1pt" d="M 434.533,814.961 L 496.063,903.543 L 556.745,814.961" font-size="12" transform="translate(283.4647,-124.0162)"/><path id="path779" fill="none" fill-rule="evenodd" stroke="#000" stroke-width="1pt" d="M 435.381,744.095 L 496.063,832.677 L 555.896,744.095" font-size="12" transform="translate(283.4647,-124.0162)"/><path id="path780" fill="none" fill-rule="evenodd" stroke="#000" stroke-width="1pt" d="M 432.835,690.945 L 496.063,761.811 L 549.212,690.945" font-size="12" transform="translate(283.4647,-124.0162)"/><path id="path781" fill="none" fill-rule="evenodd" stroke="#000" stroke-width="1pt" d="M 425.197,637.796 L 496.063,708.661 L 541.469,637.796" font-size="12" transform="translate(283.4647,-124.0162)"/><path id="path782" fill="none" fill-rule="evenodd" stroke="#000" stroke-width="1pt" d="M 436.124,593.238 L 489.274,680.124 L 524.601,584.646" font-size="12" transform="translate(283.4647,-124.0162)"/></g><g id="g800" transform="matrix(0.360878,0.10411,1.321056e-2,0.380525,452.7614,-239.2657)"><path id="path801" fill="#006d00" fill-rule="evenodd" stroke="#fff" stroke-width="8.25" d="M 460.63,549.213 L 489.273,620.079 L 531.496,566.929 L 521.312,655.512 L 549.212,620.079 L 531.496,708.661 L 556.745,673.228 L 531.496,761.811 L 566.929,726.378 L 531.496,832.677 L 566.929,797.244 L 531.496,903.543 L 566.929,868.11 L 531.496,974.409 L 513.78,1027.56 L 496.063,1045.28 L 478.346,1027.56 L 460.63,974.409 L 425.197,868.11 L 460.63,903.543 L 425.197,797.244 L 460.63,832.677 L 425.197,726.378 L 460.63,761.811 L 415.013,673.228 L 460.63,708.661 L 407.48,620.079 L 450.446,655.512 L 425.196,566.929 L 460.629,620.079 L 460.63,549.213 z" font-size="12" transform="translate(283.4647,-124.0162)"/><path id="path802" fill="none" fill-rule="evenodd" stroke="#000" stroke-width="1pt" d="M 467.208,584.646 L 496.063,708.662 L 496.063,1045.28" font-size="12" transform="translate(283.4647,-124.0162)"/><path id="path803" fill="none" fill-rule="evenodd" stroke="#000" stroke-width="1pt" d="M 436.23,885.827 L 496.063,974.409 L 556.745,885.827" font-size="12" transform="translate(283.4647,-124.0162)"/><path id="path804" fill="none" fill-rule="evenodd" stroke="#000" stroke-width="1pt" d="M 434.533,814.961 L 496.063,903.543 L 556.745,814.961" font-size="12" transform="translate(283.4647,-124.0162)"/><path id="path805" fill="none" fill-rule="evenodd" stroke="#000" stroke-width="1pt" d="M 435.381,744.095 L 496.063,832.677 L 555.896,744.095" font-size="12" transform="translate(283.4647,-124.0162)"/><path id="path806" fill="none" fill-rule="evenodd" stroke="#000" stroke-width="1pt" d="M 432.835,690.945 L 496.063,761.811 L 549.212,690.945" font-size="12" transform="translate(283.4647,-124.0162)"/><path id="path807" fill="none" fill-rule="evenodd" stroke="#000" stroke-width="1pt" d="M 425.197,637.796 L 496.063,708.661 L 541.469,637.796" font-size="12" transform="translate(283.4647,-124.0162)"/><path id="path808" fill="none" fill-rule="evenodd" stroke="#000" stroke-width="1pt" d="M 436.124,593.238 L 489.274,680.124 L 524.601,584.646" font-size="12" transform="translate(283.4647,-124.0162)"/></g><g id="g843" transform="matrix(4.613187e-2,-0.364743,0.326017,6.479648e-2,379.5799,479.5432)"><path id="path810" fill="#006d00" fill-rule="evenodd" stroke="#fff" stroke-width="8.25" d="M 354.331,531.496 L 442.914,620.079 L 460.63,566.93 L 460.63,655.512 L 496.063,620.079 L 478.347,708.662 L 513.779,673.228 L 496.063,761.812 L 531.496,726.379 L 513.78,832.678 L 549.213,797.245 L 513.78,903.544 L 549.213,868.111 L 531.496,974.409 L 513.78,1027.56 L 496.063,1045.28 L 478.346,1027.56 L 460.63,974.409 L 407.48,892.115 L 442.914,903.544 L 407.481,797.245 L 442.914,832.678 L 389.764,726.379 L 425.197,761.812 L 372.047,673.228 L 425.197,708.662 L 354.331,620.079 L 407.48,655.512 L 336.614,584.646 L 407.48,620.079 L 354.331,531.496 z" font-size="12" transform="translate(442.9136,-42.96583)"/><path id="path811" fill="none" fill-rule="evenodd" stroke="#000" stroke-width="1pt" d="M 378.962,560.015 L 442.914,655.512 L 460.63,708.662 L 469.489,753.867 L 478.347,832.678 L 487.662,903.544 L 496.063,1045.28" font-size="12" transform="translate(442.9136,-42.96583)"/><path id="path812" fill="none" fill-rule="evenodd" stroke="#000" stroke-width="1pt" d="M 425.197,903.544 L 488.862,974.41 L 539.611,885.827" font-size="12" transform="translate(442.9136,-42.96583)"/><path id="path813" fill="none" fill-rule="evenodd" stroke="#000" stroke-width="1pt" d="M 417.082,814.961 L 487.661,903.544 L 538.411,814.961" font-size="12" transform="translate(442.9136,-42.96583)"/><path id="path814" fill="none" fill-rule="evenodd" stroke="#000" stroke-width="1pt" d="M 407.48,752.443 L 478.347,832.678 L 524.295,744.095" font-size="12" transform="translate(442.9136,-42.96583)"/><path id="path815" fill="none" fill-rule="evenodd" stroke="#000" stroke-width="1pt" d="M 372.047,637.796 L 460.63,708.662 L 486.461,637.796" font-size="12" transform="translate(442.9136,-42.96583)"/><path id="path816" fill="none" fill-rule="evenodd" stroke="#000" stroke-width="1pt" d="M 360.618,602.363 L 442.914,655.512 L 453.429,602.363" font-size="12" transform="translate(442.9136,-42.96583)"/><path id="path817" fill="none" fill-rule="evenodd" stroke="#000" stroke-width="1pt" d="M 389.764,690.945 L 470.859,761.811 L 504.805,690.945" font-size="12" transform="translate(442.9136,-42.96583)"/></g></g></g><g id="g3550" transform="matrix(0.253333,0,0,0.253333,412,157.1807)"><path id="path2533" fill="#9d9d9d" fill-opacity="1" fill-rule="evenodd" stroke="#000" stroke-linecap="butt" stroke-linejoin="miter" stroke-opacity="1" stroke-width="1.008" d="M 52.503965,257.67359 L 151.04022,239.9936 L 253.68217,257.67359 L 206.05631,277.47519 L 118.19481,278.88959 L 52.503965,257.67359 z"/><path id="path560" fill="#c00" fill-opacity="1" stroke="#000" stroke-dasharray="none" stroke-miterlimit="4" stroke-opacity="1" stroke-width="1.629" d="M 151.78901,98.44529 C 134.5655,104.43198 115.487,90.019808 84.429526,113.53855 C 84.429526,113.53855 30.285723,90.375857 26.173134,143.90965 C 26.007856,146.0772 34.743302,159.13312 35.959006,158.19981 C 42.763268,152.97609 32.729269,163.27247 32.729269,164.75987 C 32.729269,166.25998 33.727209,167.09271 34.064093,167.75377 C 34.394626,168.42118 35.227321,169.41915 35.392587,172.24775 C 35.557854,175.07637 29.255743,182.79178 31.919093,185.62039 C 34.576081,188.44899 34.741348,196.60428 34.741348,198.93073 C 34.741348,201.25719 36.406727,207.7471 37.569954,209.08192 C 38.733193,210.41042 40.729115,213.73484 40.729115,216.56345 C 40.729115,219.39206 41.892332,227.21045 41.39017,229.2 C 40.894371,231.19592 44.384053,233.69399 47.549544,234.69194 C 50.708684,235.68992 91.484837,236.39788 148.71173,235.39993 C 205.94498,234.40198 225.03999,243.45747 248.68588,234.85721 C 252.34084,233.52874 253.00827,230.53485 252.67773,228.86947 C 252.34084,227.21045 252.67773,221.89013 253.67569,220.55529 C 254.67364,219.22678 261.32882,208.57978 259.99396,206.58386 C 261.2504,205.4496 270.5831,211.97352 264.639,206.14839 C 263.11463,204.65453 265.49227,188.93207 266.31224,185.62039 C 267.13861,182.30235 268.40792,176.07061 269.93345,174.91375 C 271.46535,173.75688 267.33516,169.42594 267.62757,168.64411 C 267.92633,167.85591 269.03869,165.41504 270.58967,164.30267 C 270.58967,164.30267 273.47549,150.77621 271.69568,144.12741 C 269.9286,137.47222 263.42643,107.54445 222.8343,113.53855 C 222.8343,113.53855 168.49352,92.638978 151.78901,98.44529 z" font-size="12"/><g id="g2053" transform="translate(0,-2.600445e-4)"><g id="g34262" transform="matrix(1.085779,0,0,1.085779,6.91471,26.11235)"><g id="g33323"><g id="g33297"><g id="g33273"><g id="g33265"><g id="g14434" stroke-dasharray="none" stroke-miterlimit="4" stroke-width="1.241" transform="matrix(0.496967,-4.459677e-2,8.946727e-2,0.726775,44.70009,100.5425)"><path id="path13497" fill="#f7d917" fill-opacity="1" fill-rule="evenodd" stroke="#000" stroke-dasharray="none" stroke-linecap="butt" stroke-linejoin="miter" stroke-miterlimit="4" stroke-opacity="1" stroke-width="1.241" d="M 49.75,0.125 C 44.657173,1.0150867 34.593967,29.370307 37.140742,38.875 C 38.903806,45.454846 41.638805,49.994728 43.1875,52.78125 C 39.783355,48.095644 31.805069,39.03125 20.9375,39.03125 C 7.2744195,39.031249 5.5071701,68.979132 5.84375,70.90625 C 5.8451686,70.913083 5.8422657,70.931582 5.84375,70.9375 C 5.8452986,70.942497 5.8733883,70.964683 5.875,70.96875 C 5.8766791,70.967805 5.9044132,70.970089 5.90625,70.96875 C 6.5192136,70.254323 12.047657,57.875 25.5625,57.875 C 34.458953,57.875001 41.391733,64.910483 43.9375,67.90625 C 43.936774,68.850585 43.960299,69.7644 43.96875,70.6875 C 41.964844,73.515974 40.687337,80.21875 34.499837,88.65625 C 27.023275,98.851565 4.1284837,99.896789 0.28125,100 C 1.2518101,100 37.80639,100 49.8125,100 C 49.859919,100 49.921967,100.00293 49.96875,100 C 49.990625,100.00202 50.009234,99.998621 50.03125,100 C 50.078033,100.00293 50.140081,100 50.1875,100 C 62.19361,100 98.74819,100 99.71875,100 C 95.871517,99.896788 72.539244,98.851561 65.062684,88.65625 C 58.875184,80.21875 58.035156,73.515973 56.03125,70.6875 C 56.039701,69.7644 56.063226,68.850585 56.0625,67.90625 C 58.608266,64.910482 65.541045,57.874999 74.4375,57.875 C 87.952343,57.875 93.480788,70.254327 94.09375,70.96875 C 94.095587,70.970089 94.123321,70.967805 94.125,70.96875 C 94.126612,70.964683 94.154701,70.942497 94.15625,70.9375 C 94.157734,70.931582 94.154831,70.913083 94.15625,70.90625 C 94.49283,68.979133 92.725584,39.03125 79.0625,39.03125 C 68.194931,39.03125 60.216645,48.095644 56.8125,52.78125 C 58.361195,49.994728 61.102733,44.205918 62.531148,38.875 C 65.118348,29.219439 55.091155,0.1322067 50,0.125 C 49.920451,0.12511261 49.830839,0.11087164 49.75,0.125 z M 43.3125,52.96875 C 43.664807,53.459137 43.974714,53.881164 44.21875,54.25 C 44.223907,54.257795 44.760491,57.226504 44.765599,57.234237 C 44.763218,57.29794 47.39283,67.420084 47.390477,67.483768 C 47.126088,67.092089 43.653445,53.568624 43.3125,52.96875 z M 56.6875,52.96875 C 56.346555,53.568624 52.655172,67.092089 52.390783,67.483768 C 52.38843,67.420084 55.783631,54.344953 55.78125,54.28125 C 55.780853,54.270633 55.344168,57.244855 55.34377,57.234237 C 55.587806,56.865401 56.335193,53.459137 56.6875,52.96875 z"/><path id="path13500" fill="#f7d917" fill-opacity="1" fill-rule="evenodd" stroke="#000" stroke-dasharray="none" stroke-linecap="butt" stroke-linejoin="miter" stroke-miterlimit="4" stroke-opacity="1" stroke-width="1.241" d="M 42,67.578191 C 42,67.578191 46,65.718903 50,65.718903 C 54,65.718903 58,67.578191 58,67.578191 L 58,72.531179 C 58,72.531179 54,70.67189 50,70.67189 C 46,70.67189 42,72.531179 42,72.531179 L 42,67.578191 z"/></g><g id="g27449" stroke-dasharray="none" stroke-miterlimit="4" stroke-width="1.241" transform="matrix(0.495379,5.970303e-2,-6.359282e-2,0.729495,168.9189,96.59048)"><path id="path27451" fill="#f7d917" fill-opacity="1" fill-rule="evenodd" stroke="#000" stroke-dasharray="none" stroke-linecap="butt" stroke-linejoin="miter" stroke-miterlimit="4" stroke-opacity="1" stroke-width="1.241" d="M 49.75,0.125 C 44.657173,1.0150867 34.593967,29.370307 37.140742,38.875 C 38.903806,45.454846 41.638805,49.994728 43.1875,52.78125 C 39.783355,48.095644 31.805069,39.03125 20.9375,39.03125 C 7.2744195,39.031249 5.5071701,68.979132 5.84375,70.90625 C 5.8451686,70.913083 5.8422657,70.931582 5.84375,70.9375 C 5.8452986,70.942497 5.8733883,70.964683 5.875,70.96875 C 5.8766791,70.967805 5.9044132,70.970089 5.90625,70.96875 C 6.5192136,70.254323 12.047657,57.875 25.5625,57.875 C 34.458953,57.875001 41.391733,64.910483 43.9375,67.90625 C 43.936774,68.850585 43.960299,69.7644 43.96875,70.6875 C 41.964844,73.515974 40.687337,80.21875 34.499837,88.65625 C 27.023275,98.851565 4.1284837,99.896789 0.28125,100 C 1.2518101,100 37.80639,100 49.8125,100 C 49.859919,100 49.921967,100.00293 49.96875,100 C 49.990625,100.00202 50.009234,99.998621 50.03125,100 C 50.078033,100.00293 50.140081,100 50.1875,100 C 62.19361,100 98.74819,100 99.71875,100 C 95.871517,99.896788 72.539244,98.851561 65.062684,88.65625 C 58.875184,80.21875 58.035156,73.515973 56.03125,70.6875 C 56.039701,69.7644 56.063226,68.850585 56.0625,67.90625 C 58.608266,64.910482 65.541045,57.874999 74.4375,57.875 C 87.952343,57.875 93.480788,70.254327 94.09375,70.96875 C 94.095587,70.970089 94.123321,70.967805 94.125,70.96875 C 94.126612,70.964683 94.154701,70.942497 94.15625,70.9375 C 94.157734,70.931582 94.154831,70.913083 94.15625,70.90625 C 94.49283,68.979133 92.725584,39.03125 79.0625,39.03125 C 68.194931,39.03125 60.216645,48.095644 56.8125,52.78125 C 58.361195,49.994728 61.102733,44.205918 62.531148,38.875 C 65.118348,29.219439 55.091155,0.1322067 50,0.125 C 49.920451,0.12511261 49.830839,0.11087164 49.75,0.125 z M 43.3125,52.96875 C 43.664807,53.459137 43.974714,53.881164 44.21875,54.25 C 44.223907,54.257795 44.760491,57.226504 44.765599,57.234237 C 44.763218,57.29794 47.39283,67.420084 47.390477,67.483768 C 47.126088,67.092089 43.653445,53.568624 43.3125,52.96875 z M 56.6875,52.96875 C 56.346555,53.568624 52.655172,67.092089 52.390783,67.483768 C 52.38843,67.420084 55.783631,54.344953 55.78125,54.28125 C 55.780853,54.270633 55.344168,57.244855 55.34377,57.234237 C 55.587806,56.865401 56.335193,53.459137 56.6875,52.96875 z"/><path id="path27453" fill="#f7d917" fill-opacity="1" fill-rule="evenodd" stroke="#000" stroke-dasharray="none" stroke-linecap="butt" stroke-linejoin="miter" stroke-miterlimit="4" stroke-opacity="1" stroke-width="1.241" d="M 42,67.578191 C 42,67.578191 46,65.718903 50,65.718903 C 54,65.718903 58,67.578191 58,67.578191 L 58,72.531179 C 58,72.531179 54,70.67189 50,70.67189 C 46,70.67189 42,72.531179 42,72.531179 L 42,67.578191 z"/></g></g><g id="g33161"><g id="g33067"><g id="g33040"><path id="path28377" fill="#f7d917" fill-opacity="1" fill-rule="evenodd" stroke="#000" stroke-dasharray="none" stroke-linecap="butt" stroke-linejoin="miter" stroke-miterlimit="4" stroke-opacity="1" stroke-width=".715" d="M 24.307772,134.55964 L 33.997629,122.74604 C 33.997629,122.74604 34.901298,123.91425 33.997629,122.74604 C 14.132028,97.064775 13.127166,82.331049 15.363287,74.869821 C 17.599408,67.408593 22.07165,59.325595 33.997629,49.377291 C 45.923607,39.428986 54.153807,44.958238 65.334412,44.958238 C 76.515016,44.958238 79.496511,47.445314 89.18637,48.688852 C 98.876225,49.93239 124.9643,51.175929 124.9643,51.175929 L 124.9643,44.336469 C 124.9643,44.336469 125.99304,44.528254 124.9643,44.336469 C 113.44564,42.18906 98.876225,44.336469 89.18637,41.849393 C 79.496511,39.362316 71.297401,38.740548 60.86217,38.740548 C 50.426939,38.740548 42.942114,35.698372 36.233751,40.050755 C 29.525388,44.403138 21.326277,51.864367 15.363287,58.082058 C 9.4002971,64.299748 6.4188033,76.735128 7.1641763,84.818126 C 7.9095502,92.901124 10.891045,99.740583 15.363287,105.95827 C 19.83553,112.17596 19.090156,117.15011 20.580903,121.50249 C 22.07165,125.85488 24.307772,135.18141 24.307772,134.55964 z"/><path id="path29282" fill="#f7d917" fill-opacity="1" fill-rule="evenodd" stroke="#000" stroke-dasharray="none" stroke-linecap="butt" stroke-linejoin="miter" stroke-miterlimit="4" stroke-opacity="1" stroke-width=".715" d="M 239.25473,134.55964 L 229.56487,122.74604 C 229.56487,122.74604 228.6612,123.91425 229.56487,122.74604 C 249.43047,97.064775 250.43533,82.331049 248.19921,74.869821 C 245.96309,67.408593 241.49085,59.325595 229.56487,49.377291 C 217.63889,39.428986 209.40869,44.958238 198.22809,44.958238 C 187.04748,44.958238 184.06599,47.445314 174.37613,48.688852 C 164.68627,49.93239 138.5982,51.175929 138.5982,51.175929 L 138.5982,44.336469 C 138.5982,44.336469 137.56946,44.528254 138.5982,44.336469 C 150.11686,42.18906 164.68627,44.336469 174.37613,41.849393 C 184.06599,39.362316 192.2651,38.740548 202.70033,38.740548 C 213.13556,38.740548 220.62039,35.698372 227.32875,40.050755 C 234.03711,44.403138 242.23622,51.864367 248.19921,58.082058 C 254.1622,64.299748 257.1437,76.735128 256.39832,84.818126 C 255.65295,92.901124 252.67146,99.740583 248.19921,105.95827 C 243.72697,112.17596 244.47234,117.15011 242.9816,121.50249 C 241.49085,125.85488 239.25473,135.18141 239.25473,134.55964 z"/><rect id="rect29364" width="34.563" height="70.894" x="115.553" y="38.701" fill="#f7d917" fill-opacity="1" fill-rule="evenodd" stroke="#000" stroke-dasharray="none" stroke-linecap="butt" stroke-linejoin="miter" stroke-miterlimit="4" stroke-opacity="1" stroke-width=".835"/></g><g id="g33061" transform="translate(0,-8)"><path id="path29388" fill="#f7d917" fill-opacity="1" fill-rule="evenodd" stroke="#000" stroke-dasharray="none" stroke-linecap="butt" stroke-linejoin="miter" stroke-miterlimit="4" stroke-opacity="1" stroke-width=".5" d="M 119.68386,-15.799146 C 119.68386,-15.799146 123.40428,-12.770914 126.25946,-8.8774715 C 129.11465,-4.9840306 131.10463,-0.2253797 131.10463,-0.2253797 C 131.10463,-0.2253797 126.34597,-2.2153611 122.45254,-5.070551 C 118.55909,-7.9257425 115.53086,-11.646141 115.53086,-11.646141 L 115.53086,14.656221 C 115.53086,14.656221 118.55909,10.93582 122.45254,8.080629 C 126.34597,5.2254391 131.10463,3.2354577 131.10463,3.2354577 C 131.10463,3.2354577 129.57132,7.1620817 128.58089,11.88755 C 127.68999,16.138135 120.39815,25.952081 120.39815,25.952081 L 141.70053,27.380652 C 141.70053,27.380652 138.1587,16.138135 136.73207,11.88755 C 135.19582,7.3103318 134.56547,3.2354577 134.56547,3.2354577 C 134.56547,3.2354577 139.32413,5.2254391 143.21756,8.080629 C 147.11101,10.93582 150.13924,14.656221 150.13924,14.656221 L 150.13924,-11.646141 C 150.13924,-11.646141 147.11101,-7.9257425 143.21756,-5.070551 C 139.32413,-2.2153611 134.56547,-0.2253797 134.56547,-0.2253797 C 134.56547,-0.2253797 136.55545,-4.9840306 139.41064,-8.8774715 C 142.26584,-12.770914 145.98624,-15.799146 145.98624,-15.799146 L 119.68386,-15.799146 z"/><g id="g33057"><path id="path29366" fill="#f7d917" fill-opacity="1" fill-rule="evenodd" stroke="#000" stroke-dasharray="none" stroke-linecap="butt" stroke-linejoin="miter" stroke-miterlimit="4" stroke-opacity="1" stroke-width=".75" d="M 150,23.076468 A 17.142857,17.142857 0 1 1 115.71429,23.076468 A 17.142857,17.142857 0 1 1 150,23.076468 z" transform="translate(-2.209282e-2,8)"/><path id="path31255" fill="#f7d917" fill-opacity="1" fill-rule="evenodd" stroke="#000" stroke-dasharray="none" stroke-linecap="butt" stroke-linejoin="miter" stroke-miterlimit="4" stroke-opacity="1" stroke-width=".5" d="M 116.07419,33.53461 L 150.17581,33.53461 C 150.17581,33.53461 150.66962,26.938729 148.2015,24.470608 C 145.8229,24.470608 137.6075,24.470608 137.6075,24.470608 L 137.42893,14.582607 L 133.48397,14.582607 L 127.38704,14.582607 L 127.20847,24.470608 C 127.20847,24.470608 120.0813,24.827751 116.79758,24.827751 C 115.30865,28.869394 115.53848,29.20861 115.53848,29.20861 L 116.07419,33.53461 z"/></g></g></g><g id="g33156"><path id="path11917" fill="#f7d917" fill-opacity="1" fill-rule="evenodd" stroke="#000" stroke-dasharray="none" stroke-linecap="butt" stroke-linejoin="miter" stroke-miterlimit="4" stroke-opacity="1" stroke-width=".75" d="M 110.87688,107.22088 C 110.87688,107.22088 117.08873,112.27704 121.85596,118.77781 C 126.6232,125.27859 129.94582,133.22398 129.94582,133.22398 C 129.94582,133.22398 122.00043,129.90136 115.49965,125.13412 C 108.99888,120.36689 103.94272,114.15504 103.94272,114.15504 L 103.94272,158.07138 C 103.94272,158.07138 108.99888,151.85954 115.49965,147.0923 C 122.00043,142.32506 129.94582,139.00244 129.94582,139.00244 C 129.94582,139.00244 126.6232,146.94783 121.85596,153.44861 C 117.08873,159.94939 110.87688,165.00555 110.87688,165.00555 L 154.79322,165.00555 C 154.79322,165.00555 148.58137,159.94939 143.81414,153.44861 C 139.0469,146.94783 135.72428,139.00244 135.72428,139.00244 C 135.72428,139.00244 143.66967,142.32506 150.17045,147.0923 C 156.67122,151.85954 161.72739,158.07138 161.72739,158.07138 L 161.72739,114.15504 C 161.72739,114.15504 156.67122,120.36689 150.17045,125.13412 C 143.66967,129.90136 135.72428,133.22398 135.72428,133.22398 C 135.72428,133.22398 139.0469,125.27859 143.81414,118.77781 C 148.58137,112.27704 154.79322,107.22088 154.79322,107.22088 L 110.87688,107.22088 z"/><path id="path27435" fill="#f7d917" fill-opacity="1" fill-rule="evenodd" stroke="#000" stroke-dasharray="none" stroke-linecap="butt" stroke-linejoin="miter" stroke-miterlimit="4" stroke-opacity="1" stroke-width=".75" d="M 27.240452,181.77981 L 48.865028,177.96682 C 48.865028,177.96682 41.869557,174.06615 36.045904,168.49195 C 30.22224,162.91775 25.570396,155.67004 25.570396,155.67004 C 25.570396,155.67004 33.972044,157.56248 41.201886,161.12844 C 48.431717,164.69441 54.489747,169.93388 54.489747,169.93388 L 46.863754,126.68473 C 46.863754,126.68473 42.963075,133.68021 37.388888,139.50386 C 31.814692,145.32752 24.566977,149.97937 24.566977,149.97937 C 24.566977,149.97937 26.459416,141.57772 30.025383,134.34788 C 33.591341,127.11805 38.830826,121.06002 38.830826,121.06002 L 17.20625,124.87302 L 27.240452,181.77981 z"/><path id="path27433" fill="#f7d917" fill-opacity="1" fill-rule="evenodd" stroke="#000" stroke-dasharray="none" stroke-linecap="butt" stroke-linejoin="miter" stroke-miterlimit="4" stroke-opacity="1" stroke-width=".75" d="M 226.83929,121.06002 C 226.83929,121.06002 232.07877,127.11803 235.64473,134.34786 C 239.21069,141.5777 241.10313,149.97935 241.10313,149.97935 C 241.10313,149.97935 233.85542,145.32751 228.28122,139.50385 C 222.70704,133.68019 218.80637,126.68472 218.80637,126.68472 L 211.18037,169.93387 C 211.18037,169.93387 217.23839,164.6944 224.46823,161.12843 C 231.69807,157.56247 240.09972,155.67003 240.09972,155.67003 C 240.09972,155.67003 235.44787,162.91774 229.62421,168.49194 C 223.80055,174.06613 216.80508,177.9668 216.80508,177.9668 L 238.42966,181.7798 L 248.46386,124.87301 L 226.83929,121.06002 z"/></g></g></g><path id="path14537" fill="#f7d917" fill-opacity="1" fill-rule="evenodd" stroke="#000" stroke-dasharray="none" stroke-linecap="butt" stroke-linejoin="miter" stroke-miterlimit="4" stroke-opacity="1" stroke-width=".75" d="M 27.463842,179.53267 L 27.613728,211.0392 C 27.613728,211.0392 80.261863,193.11098 132.91001,193.11098 C 185.55813,193.11098 238.20627,211.0392 238.20627,211.0392 L 238.20627,179.53267 C 238.20627,179.53267 185.52066,161.60445 132.83506,161.60445 C 80.149449,161.60445 27.463842,179.53267 27.463842,179.53267 z"/></g><g id="g31151"><path id="path23567" fill="#fff" fill-opacity="1" fill-rule="evenodd" stroke="#000" stroke-dasharray="none" stroke-linecap="butt" stroke-linejoin="miter" stroke-miterlimit="4" stroke-opacity="1" stroke-width="1.5" d="M 2.0203056,723.05243 A 12.121831,12.121831 0 1 1 -22.223356,723.05243 A 12.121831,12.121831 0 1 1 2.0203056,723.05243 z" transform="matrix(0.661234,0,0,0.661234,21.24618,-360.3206)"/><path id="path29252" fill="#fff" fill-opacity="1" fill-rule="evenodd" stroke="#000" stroke-dasharray="none" stroke-linecap="butt" stroke-linejoin="miter" stroke-miterlimit="4" stroke-opacity="1" stroke-width="1.5" d="M 2.0203056,723.05243 A 12.121831,12.121831 0 1 1 -22.223356,723.05243 A 12.121831,12.121831 0 1 1 2.0203056,723.05243 z" transform="matrix(0.661234,0,0,0.661234,10.96519,-378.6019)"/><path id="path29254" fill="#fff" fill-opacity="1" fill-rule="evenodd" stroke="#000" stroke-dasharray="none" stroke-linecap="butt" stroke-linejoin="miter" stroke-miterlimit="4" stroke-opacity="1" stroke-width="1.5" d="M 2.0203056,723.05243 A 12.121831,12.121831 0 1 1 -22.223356,723.05243 A 12.121831,12.121831 0 1 1 2.0203056,723.05243 z" transform="matrix(0.661234,0,0,0.661234,8.822333,-400.0304)"/><path id="path29256" fill="#fff" fill-opacity="1" fill-rule="evenodd" stroke="#000" stroke-dasharray="none" stroke-linecap="butt" stroke-linejoin="miter" stroke-miterlimit="4" stroke-opacity="1" stroke-width="1.5" d="M 2.0203056,723.05243 A 12.121831,12.121831 0 1 1 -22.223356,723.05243 A 12.121831,12.121831 0 1 1 2.0203056,723.05243 z" transform="matrix(0.661234,0,0,0.661234,15.25091,-420.0304)"/><path id="path29258" fill="#fff" fill-opacity="1" fill-rule="evenodd" stroke="#000" stroke-dasharray="none" stroke-linecap="butt" stroke-linejoin="miter" stroke-miterlimit="4" stroke-opacity="1" stroke-width="1.5" d="M 2.0203056,723.05243 A 12.121831,12.121831 0 1 1 -22.223356,723.05243 A 12.121831,12.121831 0 1 1 2.0203056,723.05243 z" transform="matrix(0.661234,0,0,0.661234,28.82233,-436.459)"/><path id="path29260" fill="#fff" fill-opacity="1" fill-rule="evenodd" stroke="#000" stroke-dasharray="none" stroke-linecap="butt" stroke-linejoin="miter" stroke-miterlimit="4" stroke-opacity="1" stroke-width="1.5" d="M 2.0203056,723.05243 A 12.121831,12.121831 0 1 1 -22.223356,723.05243 A 12.121831,12.121831 0 1 1 2.0203056,723.05243 z" transform="matrix(0.661234,0,0,0.661234,47.39376,-447.8875)"/><path id="path29262" fill="#fff" fill-opacity="1" fill-rule="evenodd" stroke="#000" stroke-dasharray="none" stroke-linecap="butt" stroke-linejoin="miter" stroke-miterlimit="4" stroke-opacity="1" stroke-width="1.5" d="M 2.0203056,723.05243 A 12.121831,12.121831 0 1 1 -22.223356,723.05243 A 12.121831,12.121831 0 1 1 2.0203056,723.05243 z" transform="matrix(0.661234,0,0,0.661234,68.10805,-446.459)"/><path id="path29264" fill="#fff" fill-opacity="1" fill-rule="evenodd" stroke="#000" stroke-dasharray="none" stroke-linecap="butt" stroke-linejoin="miter" stroke-miterlimit="4" stroke-opacity="1" stroke-width="1.5" d="M 2.0203056,723.05243 A 12.121831,12.121831 0 1 1 -22.223356,723.05243 A 12.121831,12.121831 0 1 1 2.0203056,723.05243 z" transform="matrix(0.661234,0,0,0.661234,88.82233,-443.0304)"/><path id="path29266" fill="#fff" fill-opacity="1" fill-rule="evenodd" stroke="#000" stroke-dasharray="none" stroke-linecap="butt" stroke-linejoin="miter" stroke-miterlimit="4" stroke-opacity="1" stroke-width="1.5" d="M 2.0203056,723.05243 A 12.121831,12.121831 0 1 1 -22.223356,723.05243 A 12.121831,12.121831 0 1 1 2.0203056,723.05243 z" transform="matrix(0.661234,0,0,0.661234,109.5366,-440.8875)"/><path id="path29284" fill="#fff" fill-opacity="1" fill-rule="evenodd" stroke="#000" stroke-dasharray="none" stroke-linecap="butt" stroke-linejoin="miter" stroke-miterlimit="4" stroke-opacity="1" stroke-width="1.5" d="M 2.0203056,723.05243 A 12.121831,12.121831 0 1 1 -22.223356,723.05243 A 12.121831,12.121831 0 1 1 2.0203056,723.05243 z" transform="matrix(-0.661234,0,0,0.661234,242.3163,-360.3206)"/><path id="path29286" fill="#fff" fill-opacity="1" fill-rule="evenodd" stroke="#000" stroke-dasharray="none" stroke-linecap="butt" stroke-linejoin="miter" stroke-miterlimit="4" stroke-opacity="1" stroke-width="1.5" d="M 2.0203056,723.05243 A 12.121831,12.121831 0 1 1 -22.223356,723.05243 A 12.121831,12.121831 0 1 1 2.0203056,723.05243 z" transform="matrix(-0.661234,0,0,0.661234,252.5973,-378.6019)"/><path id="path29288" fill="#fff" fill-opacity="1" fill-rule="evenodd" stroke="#000" stroke-dasharray="none" stroke-linecap="butt" stroke-linejoin="miter" stroke-miterlimit="4" stroke-opacity="1" stroke-width="1.5" d="M 2.0203056,723.05243 A 12.121831,12.121831 0 1 1 -22.223356,723.05243 A 12.121831,12.121831 0 1 1 2.0203056,723.05243 z" transform="matrix(-0.661234,0,0,0.661234,254.7402,-400.0304)"/><path id="path29290" fill="#fff" fill-opacity="1" fill-rule="evenodd" stroke="#000" stroke-dasharray="none" stroke-linecap="butt" stroke-linejoin="miter" stroke-miterlimit="4" stroke-opacity="1" stroke-width="1.5" d="M 2.0203056,723.05243 A 12.121831,12.121831 0 1 1 -22.223356,723.05243 A 12.121831,12.121831 0 1 1 2.0203056,723.05243 z" transform="matrix(-0.661234,0,0,0.661234,248.3116,-420.0304)"/><path id="path29292" fill="#fff" fill-opacity="1" fill-rule="evenodd" stroke="#000" stroke-dasharray="none" stroke-linecap="butt" stroke-linejoin="miter" stroke-miterlimit="4" stroke-opacity="1" stroke-width="1.5" d="M 2.0203056,723.05243 A 12.121831,12.121831 0 1 1 -22.223356,723.05243 A 12.121831,12.121831 0 1 1 2.0203056,723.05243 z" transform="matrix(-0.661234,0,0,0.661234,234.7402,-436.459)"/><path id="path29294" fill="#fff" fill-opacity="1" fill-rule="evenodd" stroke="#000" stroke-dasharray="none" stroke-linecap="butt" stroke-linejoin="miter" stroke-miterlimit="4" stroke-opacity="1" stroke-width="1.5" d="M 2.0203056,723.05243 A 12.121831,12.121831 0 1 1 -22.223356,723.05243 A 12.121831,12.121831 0 1 1 2.0203056,723.05243 z" transform="matrix(-0.661234,0,0,0.661234,216.1687,-447.8875)"/><path id="path29296" fill="#fff" fill-opacity="1" fill-rule="evenodd" stroke="#000" stroke-dasharray="none" stroke-linecap="butt" stroke-linejoin="miter" stroke-miterlimit="4" stroke-opacity="1" stroke-width="1.5" d="M 2.0203056,723.05243 A 12.121831,12.121831 0 1 1 -22.223356,723.05243 A 12.121831,12.121831 0 1 1 2.0203056,723.05243 z" transform="matrix(-0.661234,0,0,0.661234,195.4544,-446.459)"/><path id="path29298" fill="#fff" fill-opacity="1" fill-rule="evenodd" stroke="#000" stroke-dasharray="none" stroke-linecap="butt" stroke-linejoin="miter" stroke-miterlimit="4" stroke-opacity="1" stroke-width="1.5" d="M 2.0203056,723.05243 A 12.121831,12.121831 0 1 1 -22.223356,723.05243 A 12.121831,12.121831 0 1 1 2.0203056,723.05243 z" transform="matrix(-0.661234,0,0,0.661234,174.7402,-443.0304)"/><path id="path29300" fill="#fff" fill-opacity="1" fill-rule="evenodd" stroke="#000" stroke-dasharray="none" stroke-linecap="butt" stroke-linejoin="miter" stroke-miterlimit="4" stroke-opacity="1" stroke-width="1.5" d="M 2.0203056,723.05243 A 12.121831,12.121831 0 1 1 -22.223356,723.05243 A 12.121831,12.121831 0 1 1 2.0203056,723.05243 z" transform="matrix(-0.661234,0,0,0.661234,154.0259,-440.8875)"/><g id="g29354" transform="translate(1.040326,0)"><path id="path29306" fill="#fff" fill-opacity="1" fill-rule="evenodd" stroke="#000" stroke-dasharray="none" stroke-linecap="butt" stroke-linejoin="miter" stroke-miterlimit="4" stroke-opacity="1" stroke-width="1.5" d="M 2.0203056,723.05243 A 12.121831,12.121831 0 1 1 -22.223356,723.05243 A 12.121831,12.121831 0 1 1 2.0203056,723.05243 z" transform="matrix(0.661234,0,0,0.661234,138.4742,-378.3206)"/><path id="path29308" fill="#fff" fill-opacity="1" fill-rule="evenodd" stroke="#000" stroke-dasharray="none" stroke-linecap="butt" stroke-linejoin="miter" stroke-miterlimit="4" stroke-opacity="1" stroke-width="1.5" d="M 2.0203056,723.05243 A 12.121831,12.121831 0 1 1 -22.223356,723.05243 A 12.121831,12.121831 0 1 1 2.0203056,723.05243 z" transform="matrix(0.661234,0,0,0.661234,138.4742,-392.6019)"/><path id="path29312" fill="#fff" fill-opacity="1" fill-rule="evenodd" stroke="#000" stroke-dasharray="none" stroke-linecap="butt" stroke-linejoin="miter" stroke-miterlimit="4" stroke-opacity="1" stroke-width="1.5" d="M 2.0203056,723.05243 A 12.121831,12.121831 0 1 1 -22.223356,723.05243 A 12.121831,12.121831 0 1 1 2.0203056,723.05243 z" transform="matrix(0.661234,0,0,0.661234,138.4742,-404.0304)"/><path id="path29314" fill="#fff" fill-opacity="1" fill-rule="evenodd" stroke="#000" stroke-dasharray="none" stroke-linecap="butt" stroke-linejoin="miter" stroke-miterlimit="4" stroke-opacity="1" stroke-width="1.5" d="M 2.0203056,723.05243 A 12.121831,12.121831 0 1 1 -22.223356,723.05243 A 12.121831,12.121831 0 1 1 2.0203056,723.05243 z" transform="matrix(0.661234,0,0,0.661234,138.4742,-414.459)"/><path id="path29316" fill="#fff" fill-opacity="1" fill-rule="evenodd" stroke="#000" stroke-dasharray="none" stroke-linecap="butt" stroke-linejoin="miter" stroke-miterlimit="4" stroke-opacity="1" stroke-width="1.5" d="M 2.0203056,723.05243 A 12.121831,12.121831 0 1 1 -22.223356,723.05243 A 12.121831,12.121831 0 1 1 2.0203056,723.05243 z" transform="matrix(0.661234,0,0,0.661234,138.4742,-447.8875)"/><path id="path29318" fill="#fff" fill-opacity="1" fill-rule="evenodd" stroke="#000" stroke-dasharray="none" stroke-linecap="butt" stroke-linejoin="miter" stroke-miterlimit="4" stroke-opacity="1" stroke-width="1.5" d="M 2.0203056,723.05243 A 12.121831,12.121831 0 1 1 -22.223356,723.05243 A 12.121831,12.121831 0 1 1 2.0203056,723.05243 z" transform="matrix(0.661234,0,0,0.661234,138.4742,-446.459)"/><path id="path29320" fill="#fff" fill-opacity="1" fill-rule="evenodd" stroke="#000" stroke-dasharray="none" stroke-linecap="butt" stroke-linejoin="miter" stroke-miterlimit="4" stroke-opacity="1" stroke-width="1.5" d="M 2.0203056,723.05243 A 12.121831,12.121831 0 1 1 -22.223356,723.05243 A 12.121831,12.121831 0 1 1 2.0203056,723.05243 z" transform="matrix(0.661234,0,0,0.661234,138.4742,-439.0304)"/><path id="path29322" fill="#fff" fill-opacity="1" fill-rule="evenodd" stroke="#000" stroke-dasharray="none" stroke-linecap="butt" stroke-linejoin="miter" stroke-miterlimit="4" stroke-opacity="1" stroke-width="1.5" d="M 2.0203056,723.05243 A 12.121831,12.121831 0 1 1 -22.223356,723.05243 A 12.121831,12.121831 0 1 1 2.0203056,723.05243 z" transform="matrix(0.661234,0,0,0.661234,138.4742,-428.8875)"/></g></g></g><g id="g34257"><path id="path33378" fill="#fff" fill-opacity="1" fill-rule="evenodd" stroke="#000" stroke-dasharray="none" stroke-linecap="butt" stroke-linejoin="miter" stroke-miterlimit="4" stroke-opacity="1" stroke-width="1" d="M 143.57142,136.29076 A 10.357142,10.357142 0 1 1 122.85714,136.29076 A 10.357142,10.357142 0 1 1 143.57142,136.29076 z" opacity="1" transform="translate(-0.457137,-2)"/><path id="path34253" fill="#fff" fill-opacity="1" fill-rule="evenodd" stroke="#000" stroke-dasharray="none" stroke-linecap="butt" stroke-linejoin="miter" stroke-miterlimit="4" stroke-opacity="1" stroke-width="1" d="M 143.57142,136.29076 A 10.357142,10.357142 0 1 1 122.85714,136.29076 A 10.357142,10.357142 0 1 1 143.57142,136.29076 z" opacity="1" transform="translate(-108.7143,16.78571)"/><path id="path34255" fill="#fff" fill-opacity="1" fill-rule="evenodd" stroke="#000" stroke-dasharray="none" stroke-linecap="butt" stroke-linejoin="miter" stroke-miterlimit="4" stroke-opacity="1" stroke-width="1" d="M 143.57142,136.29076 A 10.357142,10.357142 0 1 1 122.85714,136.29076 A 10.357142,10.357142 0 1 1 143.57142,136.29076 z" opacity="1" transform="translate(107.2857,16.78571)"/></g></g><g id="g2038"><rect id="rect36472" width="34.762" height="15.153" x="134.791" y="210.096" fill="#002b7f" fill-opacity="1" fill-rule="evenodd" stroke="#000" stroke-dasharray="none" stroke-linecap="butt" stroke-linejoin="miter" stroke-miterlimit="4" stroke-opacity="1" stroke-width=".841"/><path id="path37350" fill="#3e8225" fill-opacity="1" fill-rule="evenodd" stroke="#000" stroke-dasharray="none" stroke-linecap="butt" stroke-linejoin="miter" stroke-miterlimit="4" stroke-opacity="1" stroke-width="1.5" d="M 16.04278,233.11084 A 22.994652,8.5561495 0 1 1 -29.946524,233.11084 A 22.994652,8.5561495 0 1 1 16.04278,233.11084 z" transform="matrix(-0.678154,-6.882792e-2,2.382547e-2,0.957698,195.4766,-0.830297)"/><path id="path37352" fill="#c00" fill-opacity="1" fill-rule="evenodd" stroke="#000" stroke-linecap="butt" stroke-linejoin="miter" stroke-opacity="1" stroke-width="1.086" d="M 36.937037,229.28499 L 28.22758,237.99445 L 38.328875,243.82644 L 61.821799,237.53153 L 57.63484,224.22812 L 36.937037,229.28499 z"/><path id="path37354" fill="#c00" fill-opacity="1" fill-rule="evenodd" stroke="#000" stroke-linecap="butt" stroke-linejoin="miter" stroke-opacity="1" stroke-width="1.086" d="M 267.40617,229.28499 L 276.11563,237.99445 L 266.01433,243.82644 L 242.52141,237.53153 L 246.70837,224.22812 L 267.40617,229.28499 z"/><path id="path37356" fill="#3e8225" fill-opacity="1" fill-rule="evenodd" stroke="#000" stroke-dasharray="none" stroke-linecap="butt" stroke-linejoin="miter" stroke-miterlimit="4" stroke-opacity="1" stroke-width="1.5" d="M 16.04278,233.11084 A 22.994652,8.5561495 0 1 1 -29.946524,233.11084 A 22.994652,8.5561495 0 1 1 16.04278,233.11084 z" transform="matrix(0.678154,-6.882792e-2,-2.382547e-2,0.957698,108.8665,-0.830297)"/><path id="path1994" fill="#fff" fill-opacity="1" fill-rule="evenodd" stroke="#000" stroke-dasharray="none" stroke-linecap="butt" stroke-linejoin="miter" stroke-miterlimit="4" stroke-opacity="1" stroke-width=".7" d="M 126.20321,214.70358 A 4.2780747,4.2780747 0 1 1 117.64706,214.70358 A 4.2780747,4.2780747 0 1 1 126.20321,214.70358 z" transform="translate(1.069518,-3.475935)"/><path id="path1996" fill="#fff" fill-opacity="1" fill-rule="evenodd" stroke="#000" stroke-dasharray="none" stroke-linecap="butt" stroke-linejoin="miter" stroke-miterlimit="4" stroke-opacity="1" stroke-width=".7" d="M 126.20321,214.70358 A 4.2780747,4.2780747 0 1 1 117.64706,214.70358 A 4.2780747,4.2780747 0 1 1 126.20321,214.70358 z" transform="translate(2.406416,10.16042)"/><path id="path1998" fill="#fff" fill-opacity="1" fill-rule="evenodd" stroke="#000" stroke-dasharray="none" stroke-linecap="butt" stroke-linejoin="miter" stroke-miterlimit="4" stroke-opacity="1" stroke-width=".7" d="M 126.20321,214.70358 A 4.2780747,4.2780747 0 1 1 117.64706,214.70358 A 4.2780747,4.2780747 0 1 1 126.20321,214.70358 z" transform="translate(-52.40642,6.149728)"/><path id="path2000" fill="#fff" fill-opacity="1" fill-rule="evenodd" stroke="#000" stroke-dasharray="none" stroke-linecap="butt" stroke-linejoin="miter" stroke-miterlimit="4" stroke-opacity="1" stroke-width=".7" d="M 126.20321,214.70358 A 4.2780747,4.2780747 0 1 1 117.64706,214.70358 A 4.2780747,4.2780747 0 1 1 126.20321,214.70358 z" transform="translate(-47.05882,18.98396)"/><path id="path2020" fill="#fff" fill-opacity="1" fill-rule="evenodd" stroke="#000" stroke-dasharray="none" stroke-linecap="butt" stroke-linejoin="miter" stroke-miterlimit="4" stroke-opacity="1" stroke-width=".7" d="M 126.20321,214.70358 A 4.2780747,4.2780747 0 1 1 117.64706,214.70358 A 4.2780747,4.2780747 0 1 1 126.20321,214.70358 z" transform="matrix(-1,0,0,1,303.0748,-3.475943)"/><path id="path2022" fill="#fff" fill-opacity="1" fill-rule="evenodd" stroke="#000" stroke-dasharray="none" stroke-linecap="butt" stroke-linejoin="miter" stroke-miterlimit="4" stroke-opacity="1" stroke-width=".7" d="M 126.20321,214.70358 A 4.2780747,4.2780747 0 1 1 117.64706,214.70358 A 4.2780747,4.2780747 0 1 1 126.20321,214.70358 z" transform="matrix(-1,0,0,1,301.7379,10.16041)"/><path id="path2024" fill="#fff" fill-opacity="1" fill-rule="evenodd" stroke="#000" stroke-dasharray="none" stroke-linecap="butt" stroke-linejoin="miter" stroke-miterlimit="4" stroke-opacity="1" stroke-width=".7" d="M 126.20321,214.70358 A 4.2780747,4.2780747 0 1 1 117.64706,214.70358 A 4.2780747,4.2780747 0 1 1 126.20321,214.70358 z" transform="matrix(-1,0,0,1,356.5507,6.14972)"/><path id="path2026" fill="#fff" fill-opacity="1" fill-rule="evenodd" stroke="#000" stroke-dasharray="none" stroke-linecap="butt" stroke-linejoin="miter" stroke-miterlimit="4" stroke-opacity="1" stroke-width=".7" d="M 126.20321,214.70358 A 4.2780747,4.2780747 0 1 1 117.64706,214.70358 A 4.2780747,4.2780747 0 1 1 126.20321,214.70358 z" transform="matrix(-1,0,0,1,351.2031,18.98395)"/></g></g><g id="g2237" transform="translate(0,-2.600445e-4)"><path id="path2159" fill="#fff" fill-opacity="1" stroke="#000" stroke-dasharray="none" stroke-miterlimit="4" stroke-opacity="1" stroke-width="1.714" d="M 238.53778,280.60328 C 241.80523,280.03582 261.51534,275.35043 265.66459,272.84312 C 262.98715,268.01464 258.18104,264.23756 261.92128,265.82521 C 263.93532,266.68013 265.52768,260.02631 259.68186,254.94045 C 242.70861,260.50708 202.00223,270.67899 150.853,270.67899 C 98.508505,270.67899 57.291321,259.97232 40.318076,254.40569 C 34.472264,259.49155 36.292899,265.27022 35.939619,267.42949 C 35.936535,267.44612 35.943256,270.15368 37.009138,272.30836 C 42.762677,278.55899 61.403257,281.6401 64.670703,282.20756 C 80.023096,284.87378 95.376119,288.90538 150.81907,288.90538 C 202.10789,288.90538 223.1854,283.2695 238.53778,280.60328 z" font-size="12"/><g id="g35393" transform="matrix(1.085779,0,0,1.085779,-81.34112,-69.11104)"><path id="path34451" fill="#fff" fill-opacity="1" stroke="#000" stroke-dasharray="none" stroke-miterlimit="4" stroke-opacity="1" stroke-width="1.578" d="M 132.90625,289.65528 C 129.89694,290.17791 110.75895,296.95571 106.9375,299.26493 C 106.94085,299.27934 106.93466,299.31043 106.9375,299.32575 C 107.26287,301.31443 103.61601,310.57667 109,315.26074 C 124.63232,310.13389 168.52546,294.85544 215.63379,294.85544 C 263.84295,294.85544 303.77393,310.13389 319.40625,315.26074 C 324.79023,310.57667 321.14338,301.31443 321.46875,299.32575 C 321.47159,299.31043 321.4654,299.27934 321.46875,299.26493 C 317.64729,296.95571 298.50931,290.17791 295.5,289.65528 C 281.36048,287.1997 266.72787,278.06897 215.66504,278.06897 C 168.42815,278.06897 147.04576,287.1997 132.90625,289.65528 z" font-size="12"/><g id="g35337" transform="matrix(1.384389,-0.143242,0.15642,1.267764,-86.62648,-64.7552)"><path id="path35329" fill="#000" fill-opacity="1" fill-rule="evenodd" stroke="#000" stroke-dasharray="none" stroke-linecap="butt" stroke-linejoin="miter" stroke-miterlimit="4" stroke-opacity="1" stroke-width="1.6" d="M 115.50802,301.56003 A 1.8716577,1.8716577 0 1 1 111.7647,301.56003 A 1.8716577,1.8716577 0 1 1 115.50802,301.56003 z" opacity="1" transform="matrix(0.4996,0,0,0.4996,56.86367,150.9007)"/><path id="path35331" fill="#000" fill-opacity="1" fill-rule="evenodd" stroke="#000" stroke-dasharray="none" stroke-linecap="butt" stroke-linejoin="miter" stroke-miterlimit="4" stroke-opacity="1" stroke-width="1.6" d="M 115.50802,301.56003 A 1.8716577,1.8716577 0 1 1 111.7647,301.56003 A 1.8716577,1.8716577 0 1 1 115.50802,301.56003 z" opacity="1" transform="matrix(0.4996,0,0,0.4996,55.52674,153.307)"/><path id="path35333" fill="#000" fill-opacity="1" fill-rule="evenodd" stroke="#000" stroke-dasharray="none" stroke-linecap="butt" stroke-linejoin="miter" stroke-miterlimit="4" stroke-opacity="1" stroke-width="1.6" d="M 115.50802,301.56003 A 1.8716577,1.8716577 0 1 1 111.7647,301.56003 A 1.8716577,1.8716577 0 1 1 115.50802,301.56003 z" opacity="1" transform="matrix(0.4996,0,0,0.4996,57.3984,154.9114)"/><path id="path35335" fill="#000" fill-opacity="1" fill-rule="evenodd" stroke="#000" stroke-linecap="butt" stroke-linejoin="miter" stroke-opacity="1" stroke-width="1" d="M 113.51808,303.66868 L 122.04404,300.50258 L 117.85943,302.89505 L 120.54527,302.81166 L 118.05284,303.98039 L 122.05409,304.25543 L 113.51808,303.66868 z"/></g><g id="g35343" transform="matrix(1.384389,-0.143242,0.15642,1.267764,-45.03159,-76.65847)"><path id="path35345" fill="#000" fill-opacity="1" fill-rule="evenodd" stroke="#000" stroke-dasharray="none" stroke-linecap="butt" stroke-linejoin="miter" stroke-miterlimit="4" stroke-opacity="1" stroke-width="1.6" d="M 115.50802,301.56003 A 1.8716577,1.8716577 0 1 1 111.7647,301.56003 A 1.8716577,1.8716577 0 1 1 115.50802,301.56003 z" opacity="1" transform="matrix(0.4996,0,0,0.4996,56.86367,150.9007)"/><path id="path35347" fill="#000" fill-opacity="1" fill-rule="evenodd" stroke="#000" stroke-dasharray="none" stroke-linecap="butt" stroke-linejoin="miter" stroke-miterlimit="4" stroke-opacity="1" stroke-width="1.6" d="M 115.50802,301.56003 A 1.8716577,1.8716577 0 1 1 111.7647,301.56003 A 1.8716577,1.8716577 0 1 1 115.50802,301.56003 z" opacity="1" transform="matrix(0.4996,0,0,0.4996,55.52674,153.307)"/><path id="path35349" fill="#000" fill-opacity="1" fill-rule="evenodd" stroke="#000" stroke-dasharray="none" stroke-linecap="butt" stroke-linejoin="miter" stroke-miterlimit="4" stroke-opacity="1" stroke-width="1.6" d="M 115.50802,301.56003 A 1.8716577,1.8716577 0 1 1 111.7647,301.56003 A 1.8716577,1.8716577 0 1 1 115.50802,301.56003 z" opacity="1" transform="matrix(0.4996,0,0,0.4996,57.3984,154.9114)"/><path id="path35351" fill="#000" fill-opacity="1" fill-rule="evenodd" stroke="#000" stroke-linecap="butt" stroke-linejoin="miter" stroke-opacity="1" stroke-width="1" d="M 113.51808,303.66868 L 122.04404,300.50258 L 117.85943,302.89505 L 120.54527,302.81166 L 118.05284,303.98039 L 122.05409,304.25543 L 113.51808,303.66868 z"/></g><g id="g35353" transform="matrix(1.378425,0.192343,-0.151629,1.268346,100.1696,-120.8592)"><path id="path35355" fill="#000" fill-opacity="1" fill-rule="evenodd" stroke="#000" stroke-dasharray="none" stroke-linecap="butt" stroke-linejoin="miter" stroke-miterlimit="4" stroke-opacity="1" stroke-width="1.6" d="M 115.50802,301.56003 A 1.8716577,1.8716577 0 1 1 111.7647,301.56003 A 1.8716577,1.8716577 0 1 1 115.50802,301.56003 z" opacity="1" transform="matrix(0.4996,0,0,0.4996,56.86367,150.9007)"/><path id="path35357" fill="#000" fill-opacity="1" fill-rule="evenodd" stroke="#000" stroke-dasharray="none" stroke-linecap="butt" stroke-linejoin="miter" stroke-miterlimit="4" stroke-opacity="1" stroke-width="1.6" d="M 115.50802,301.56003 A 1.8716577,1.8716577 0 1 1 111.7647,301.56003 A 1.8716577,1.8716577 0 1 1 115.50802,301.56003 z" opacity="1" transform="matrix(0.4996,0,0,0.4996,55.52674,153.307)"/><path id="path35359" fill="#000" fill-opacity="1" fill-rule="evenodd" stroke="#000" stroke-dasharray="none" stroke-linecap="butt" stroke-linejoin="miter" stroke-miterlimit="4" stroke-opacity="1" stroke-width="1.6" d="M 115.50802,301.56003 A 1.8716577,1.8716577 0 1 1 111.7647,301.56003 A 1.8716577,1.8716577 0 1 1 115.50802,301.56003 z" opacity="1" transform="matrix(0.4996,0,0,0.4996,57.3984,154.9114)"/><path id="path35361" fill="#000" fill-opacity="1" fill-rule="evenodd" stroke="#000" stroke-linecap="butt" stroke-linejoin="miter" stroke-opacity="1" stroke-width="1" d="M 113.51808,303.66868 L 122.04404,300.50258 L 117.85943,302.89505 L 120.54527,302.81166 L 118.05284,303.98039 L 122.05409,304.25543 L 113.51808,303.66868 z"/></g><g id="g35373" transform="matrix(1.384389,0.143242,0.15642,-1.267764,54.4337,659.4577)"><path id="path35375" fill="#000" fill-opacity="1" fill-rule="evenodd" stroke="#000" stroke-dasharray="none" stroke-linecap="butt" stroke-linejoin="miter" stroke-miterlimit="4" stroke-opacity="1" stroke-width="1.6" d="M 115.50802,301.56003 A 1.8716577,1.8716577 0 1 1 111.7647,301.56003 A 1.8716577,1.8716577 0 1 1 115.50802,301.56003 z" opacity="1" transform="matrix(0.4996,0,0,0.4996,56.86367,150.9007)"/><path id="path35377" fill="#000" fill-opacity="1" fill-rule="evenodd" stroke="#000" stroke-dasharray="none" stroke-linecap="butt" stroke-linejoin="miter" stroke-miterlimit="4" stroke-opacity="1" stroke-width="1.6" d="M 115.50802,301.56003 A 1.8716577,1.8716577 0 1 1 111.7647,301.56003 A 1.8716577,1.8716577 0 1 1 115.50802,301.56003 z" opacity="1" transform="matrix(0.4996,0,0,0.4996,55.52674,153.307)"/><path id="path35379" fill="#000" fill-opacity="1" fill-rule="evenodd" stroke="#000" stroke-dasharray="none" stroke-linecap="butt" stroke-linejoin="miter" stroke-miterlimit="4" stroke-opacity="1" stroke-width="1.6" d="M 115.50802,301.56003 A 1.8716577,1.8716577 0 1 1 111.7647,301.56003 A 1.8716577,1.8716577 0 1 1 115.50802,301.56003 z" opacity="1" transform="matrix(0.4996,0,0,0.4996,57.3984,154.9114)"/><path id="path35381" fill="#000" fill-opacity="1" fill-rule="evenodd" stroke="#000" stroke-linecap="butt" stroke-linejoin="miter" stroke-opacity="1" stroke-width="1" d="M 113.51808,303.66868 L 122.04404,300.50258 L 117.85943,302.89505 L 120.54527,302.81166 L 118.05284,303.98039 L 122.05409,304.25543 L 113.51808,303.66868 z"/></g><g id="g35383" transform="matrix(1.384389,0.143242,0.15642,-1.267764,96.41226,670.4203)"><path id="path35385" fill="#000" fill-opacity="1" fill-rule="evenodd" stroke="#000" stroke-dasharray="none" stroke-linecap="butt" stroke-linejoin="miter" stroke-miterlimit="4" stroke-opacity="1" stroke-width="1.6" d="M 115.50802,301.56003 A 1.8716577,1.8716577 0 1 1 111.7647,301.56003 A 1.8716577,1.8716577 0 1 1 115.50802,301.56003 z" opacity="1" transform="matrix(0.4996,0,0,0.4996,56.86367,150.9007)"/><path id="path35387" fill="#000" fill-opacity="1" fill-rule="evenodd" stroke="#000" stroke-dasharray="none" stroke-linecap="butt" stroke-linejoin="miter" stroke-miterlimit="4" stroke-opacity="1" stroke-width="1.6" d="M 115.50802,301.56003 A 1.8716577,1.8716577 0 1 1 111.7647,301.56003 A 1.8716577,1.8716577 0 1 1 115.50802,301.56003 z" opacity="1" transform="matrix(0.4996,0,0,0.4996,55.52674,153.307)"/><path id="path35389" fill="#000" fill-opacity="1" fill-rule="evenodd" stroke="#000" stroke-dasharray="none" stroke-linecap="butt" stroke-linejoin="miter" stroke-miterlimit="4" stroke-opacity="1" stroke-width="1.6" d="M 115.50802,301.56003 A 1.8716577,1.8716577 0 1 1 111.7647,301.56003 A 1.8716577,1.8716577 0 1 1 115.50802,301.56003 z" opacity="1" transform="matrix(0.4996,0,0,0.4996,57.3984,154.9114)"/><path id="path35391" fill="#000" fill-opacity="1" fill-rule="evenodd" stroke="#000" stroke-linecap="butt" stroke-linejoin="miter" stroke-opacity="1" stroke-width="1" d="M 113.51808,303.66868 L 122.04404,300.50258 L 117.85943,302.89505 L 120.54527,302.81166 L 118.05284,303.98039 L 122.05409,304.25543 L 113.51808,303.66868 z"/></g></g></g></g></g></g></svg>