<svg xmlns="http://www.w3.org/2000/svg" xmlns:xlink="http://www.w3.org/1999/xlink" width="2880" height="1440" version="1.0"><rect width="2880" height="1440" fill="#ce1126"/><rect width="1440" height="720" fill="#002b7f"/><polygon fill="#fff" points="0 -1 .588 .809 -.951 -.309 .951 -.309 -.588 .809" transform="translate(720,604.93494) scale(105.14622)"/><polygon id="p" fill="#fff" points="0 -1 .588 .809 -.951 -.309 .951 -.309 -.588 .809" transform="translate(500,292.918) scale(84.116958,82.917961)"/><polygon fill="#fff" points="0 -1 .588 .809 -.951 -.309 .951 -.309 -.588 .809" transform="translate(945,257.3901) scale(78.859659,77.390097)"/><use x="220" y="-180" xlink:href="#p"/><polygon fill="#fff" points="0 -1 .588 .809 -.951 -.309 .951 -.309 -.588 .809" transform="translate(830,417.46729) scale(52.573095)"/></svg>